<?xml version="1.0" encoding="UTF-8" ?>
<svg version="1.1" width="32" height="32" xmlns="http://www.w3.org/2000/svg" shape-rendering="crispEdges">
<rect x="25" y="2" width="1" height="1" fill="#000000" />
<rect x="23" y="3" width="2" height="1" fill="#000000" />
<rect x="25" y="3" width="1" height="14" fill="#AC3232" />
<rect x="26" y="3" width="1" height="2" fill="#000000" />
<rect x="21" y="4" width="2" height="1" fill="#000000" />
<rect x="23" y="4" width="2" height="13" fill="#AC3232" />
<rect x="19" y="5" width="2" height="1" fill="#000000" />
<rect x="21" y="5" width="2" height="14" fill="#AC3232" />
<rect x="26" y="5" width="1" height="11" fill="#AC3232" />
<rect x="27" y="5" width="1" height="1" fill="#000000" />
<rect x="18" y="6" width="1" height="1" fill="#000000" />
<rect x="19" y="6" width="2" height="14" fill="#AC3232" />
<rect x="27" y="6" width="1" height="9" fill="#AC3232" />
<rect x="28" y="6" width="1" height="1" fill="#000000" />
<rect x="16" y="7" width="2" height="1" fill="#000000" />
<rect x="18" y="7" width="1" height="14" fill="#AC3232" />
<rect x="28" y="7" width="1" height="7" fill="#AC3232" />
<rect x="29" y="7" width="1" height="2" fill="#000000" />
<rect x="13" y="8" width="3" height="1" fill="#000000" />
<rect x="16" y="8" width="2" height="14" fill="#AC3232" />
<rect x="11" y="9" width="2" height="1" fill="#000000" />
<rect x="13" y="9" width="3" height="15" fill="#AC3232" />
<rect x="29" y="9" width="1" height="4" fill="#AC3232" />
<rect x="30" y="9" width="1" height="1" fill="#000000" />
<rect x="10" y="10" width="1" height="1" fill="#000000" />
<rect x="11" y="10" width="2" height="17" fill="#AC3232" />
<rect x="30" y="10" width="1" height="2" fill="#AC3232" />
<rect x="31" y="10" width="1" height="3" fill="#000000" />
<rect x="8" y="11" width="2" height="1" fill="#000000" />
<rect x="10" y="11" width="1" height="18" fill="#AC3232" />
<rect x="7" y="12" width="1" height="1" fill="#000000" />
<rect x="8" y="12" width="2" height="15" fill="#AC3232" />
<rect x="30" y="12" width="1" height="1" fill="#000000" />
<rect x="6" y="13" width="1" height="1" fill="#000000" />
<rect x="7" y="13" width="1" height="13" fill="#AC3232" />
<rect x="29" y="13" width="1" height="1" fill="#000000" />
<rect x="5" y="14" width="1" height="1" fill="#000000" />
<rect x="6" y="14" width="1" height="11" fill="#AC3232" />
<rect x="28" y="14" width="1" height="1" fill="#000000" />
<rect x="4" y="15" width="1" height="1" fill="#000000" />
<rect x="5" y="15" width="1" height="9" fill="#AC3232" />
<rect x="27" y="15" width="1" height="1" fill="#000000" />
<rect x="3" y="16" width="1" height="1" fill="#000000" />
<rect x="4" y="16" width="1" height="7" fill="#AC3232" />
<rect x="26" y="16" width="1" height="1" fill="#000000" />
<rect x="2" y="17" width="1" height="1" fill="#000000" />
<rect x="3" y="17" width="1" height="5" fill="#AC3232" />
<rect x="23" y="17" width="1" height="1" fill="#AC3232" />
<rect x="24" y="17" width="2" height="1" fill="#000000" />
<rect x="1" y="18" width="1" height="1" fill="#000000" />
<rect x="2" y="18" width="1" height="3" fill="#AC3232" />
<rect x="23" y="18" width="1" height="1" fill="#000000" />
<rect x="0" y="19" width="1" height="1" fill="#000000" />
<rect x="1" y="19" width="1" height="1" fill="#AC3232" />
<rect x="21" y="19" width="2" height="1" fill="#000000" />
<rect x="1" y="20" width="1" height="1" fill="#000000" />
<rect x="19" y="20" width="1" height="1" fill="#AC3232" />
<rect x="20" y="20" width="1" height="1" fill="#000000" />
<rect x="2" y="21" width="1" height="1" fill="#000000" />
<rect x="18" y="21" width="2" height="1" fill="#000000" />
<rect x="3" y="22" width="1" height="1" fill="#000000" />
<rect x="16" y="22" width="1" height="1" fill="#AC3232" />
<rect x="17" y="22" width="1" height="1" fill="#000000" />
<rect x="4" y="23" width="1" height="1" fill="#000000" />
<rect x="16" y="23" width="1" height="1" fill="#000000" />
<rect x="5" y="24" width="1" height="1" fill="#000000" />
<rect x="13" y="24" width="2" height="1" fill="#AC3232" />
<rect x="15" y="24" width="1" height="1" fill="#000000" />
<rect x="6" y="25" width="1" height="1" fill="#000000" />
<rect x="13" y="25" width="1" height="1" fill="#AC3232" />
<rect x="14" y="25" width="1" height="1" fill="#000000" />
<rect x="7" y="26" width="1" height="1" fill="#000000" />
<rect x="13" y="26" width="1" height="1" fill="#000000" />
<rect x="8" y="27" width="1" height="1" fill="#000000" />
<rect x="9" y="27" width="1" height="1" fill="#AC3232" />
<rect x="11" y="27" width="1" height="1" fill="#AC3232" />
<rect x="12" y="27" width="1" height="1" fill="#000000" />
<rect x="9" y="28" width="1" height="1" fill="#000000" />
<rect x="11" y="28" width="1" height="1" fill="#000000" />
<rect x="10" y="29" width="1" height="1" fill="#000000" />
</svg>