<?xml version="1.0" encoding="UTF-8" ?>
<svg version="1.1" width="64" height="64" xmlns="http://www.w3.org/2000/svg" shape-rendering="crispEdges">
<rect x="27" y="0" width="3" height="2" fill="#5B6EE1" />
<rect x="26" y="1" width="1" height="1" fill="#5B6EE1" />
<rect x="30" y="1" width="1" height="2" fill="#5B6EE1" />
<rect x="24" y="2" width="2" height="2" fill="#5B6EE1" />
<rect x="26" y="2" width="1" height="1" fill="#FBF236" />
<rect x="27" y="2" width="2" height="3" fill="#5B6EE1" />
<rect x="29" y="2" width="1" height="1" fill="#FBF236" />
<rect x="31" y="2" width="1" height="5" fill="#5B6EE1" />
<rect x="23" y="3" width="1" height="4" fill="#5B6EE1" />
<rect x="26" y="3" width="1" height="4" fill="#5B6EE1" />
<rect x="29" y="3" width="1" height="4" fill="#5B6EE1" />
<rect x="30" y="3" width="1" height="1" fill="#FBF236" />
<rect x="32" y="3" width="1" height="2" fill="#5B6EE1" />
<rect x="22" y="4" width="1" height="3" fill="#5B6EE1" />
<rect x="24" y="4" width="1" height="1" fill="#FBF236" />
<rect x="25" y="4" width="1" height="3" fill="#5B6EE1" />
<rect x="30" y="4" width="1" height="3" fill="#5B6EE1" />
<rect x="33" y="4" width="2" height="3" fill="#5B6EE1" />
<rect x="19" y="5" width="3" height="2" fill="#5B6EE1" />
<rect x="24" y="5" width="1" height="2" fill="#5B6EE1" />
<rect x="27" y="5" width="1" height="1" fill="#FBF236" />
<rect x="28" y="5" width="1" height="2" fill="#5B6EE1" />
<rect x="32" y="5" width="1" height="1" fill="#FBF236" />
<rect x="35" y="5" width="1" height="2" fill="#5B6EE1" />
<rect x="27" y="6" width="1" height="1" fill="#5B6EE1" />
<rect x="32" y="6" width="1" height="1" fill="#5B6EE1" />
<rect x="36" y="6" width="1" height="1" fill="#5B6EE1" />
<rect x="21" y="7" width="13" height="1" fill="#EEC39A" />
<rect x="20" y="8" width="4" height="4" fill="#EEC39A" />
<rect x="24" y="8" width="1" height="1" fill="#000000" />
<rect x="25" y="8" width="4" height="5" fill="#EEC39A" />
<rect x="29" y="8" width="1" height="1" fill="#000000" />
<rect x="30" y="8" width="5" height="4" fill="#EEC39A" />
<rect x="24" y="9" width="1" height="4" fill="#EEC39A" />
<rect x="29" y="9" width="1" height="4" fill="#EEC39A" />
<rect x="35" y="9" width="1" height="3" fill="#EEC39A" />
<rect x="19" y="10" width="1" height="4" fill="#EEC39A" />
<rect x="20" y="12" width="3" height="3" fill="#EEC39A" />
<rect x="23" y="12" width="1" height="1" fill="#000000" />
<rect x="30" y="12" width="1" height="2" fill="#000000" />
<rect x="31" y="12" width="4" height="2" fill="#EEC39A" />
<rect x="23" y="13" width="1" height="4" fill="#EEC39A" />
<rect x="24" y="13" width="6" height="1" fill="#000000" />
<rect x="24" y="14" width="10" height="1" fill="#EEC39A" />
<rect x="21" y="15" width="2" height="1" fill="#EEC39A" />
<rect x="24" y="15" width="9" height="1" fill="#EEC39A" />
<rect x="24" y="16" width="8" height="1" fill="#EEC39A" />
<rect x="21" y="17" width="9" height="2" fill="#5B6EE1" />
<rect x="30" y="17" width="1" height="1" fill="#EEC39A" />
<rect x="31" y="17" width="5" height="4" fill="#5B6EE1" />
<rect x="30" y="18" width="1" height="2" fill="#5B6EE1" />
<rect x="20" y="19" width="2" height="11" fill="#5B6EE1" />
<rect x="22" y="19" width="1" height="1" fill="#FBF236" />
<rect x="23" y="19" width="7" height="2" fill="#5B6EE1" />
<rect x="36" y="19" width="1" height="27" fill="#5B6EE1" />
<rect x="22" y="20" width="1" height="4" fill="#5B6EE1" />
<rect x="30" y="20" width="1" height="1" fill="#FBF236" />
<rect x="19" y="21" width="1" height="13" fill="#5B6EE1" />
<rect x="23" y="21" width="2" height="20" fill="#5B6EE1" />
<rect x="25" y="21" width="1" height="1" fill="#FBF236" />
<rect x="26" y="21" width="8" height="3" fill="#5B6EE1" />
<rect x="34" y="21" width="1" height="1" fill="#FBF236" />
<rect x="35" y="21" width="1" height="25" fill="#5B6EE1" />
<rect x="37" y="21" width="1" height="25" fill="#5B6EE1" />
<rect x="25" y="22" width="1" height="10" fill="#5B6EE1" />
<rect x="34" y="22" width="1" height="4" fill="#5B6EE1" />
<rect x="18" y="23" width="1" height="1" fill="#5B6EE1" />
<rect x="38" y="23" width="1" height="13" fill="#5B6EE1" />
<rect x="17" y="24" width="2" height="1" fill="#EEC39A" />
<rect x="22" y="24" width="1" height="1" fill="#FBF236" />
<rect x="26" y="24" width="2" height="22" fill="#5B6EE1" />
<rect x="28" y="24" width="1" height="1" fill="#000000" />
<rect x="29" y="24" width="5" height="11" fill="#5B6EE1" />
<rect x="15" y="25" width="2" height="1" fill="#EEC39A" />
<rect x="17" y="25" width="2" height="21" fill="#5B6EE1" />
<rect x="22" y="25" width="1" height="2" fill="#5B6EE1" />
<rect x="28" y="25" width="1" height="5" fill="#5B6EE1" />
<rect x="13" y="26" width="2" height="1" fill="#EEC39A" />
<rect x="34" y="26" width="1" height="1" fill="#FBF236" />
<rect x="39" y="26" width="1" height="20" fill="#5B6EE1" />
<rect x="40" y="26" width="2" height="1" fill="#EEC39A" />
<rect x="10" y="27" width="3" height="1" fill="#EEC39A" />
<rect x="16" y="27" width="1" height="19" fill="#5B6EE1" />
<rect x="22" y="27" width="1" height="1" fill="#FBF236" />
<rect x="34" y="27" width="1" height="5" fill="#5B6EE1" />
<rect x="42" y="27" width="2" height="1" fill="#EEC39A" />
<rect x="8" y="28" width="2" height="1" fill="#EEC39A" />
<rect x="22" y="28" width="1" height="10" fill="#5B6EE1" />
<rect x="40" y="28" width="1" height="16" fill="#5B6EE1" />
<rect x="44" y="28" width="2" height="1" fill="#EEC39A" />
<rect x="6" y="29" width="2" height="1" fill="#EEC39A" />
<rect x="15" y="29" width="1" height="11" fill="#5B6EE1" />
<rect x="46" y="29" width="2" height="1" fill="#EEC39A" />
<rect x="4" y="30" width="2" height="1" fill="#EEC39A" />
<rect x="20" y="30" width="1" height="1" fill="#FBF236" />
<rect x="21" y="30" width="1" height="16" fill="#5B6EE1" />
<rect x="28" y="30" width="1" height="1" fill="#000000" />
<rect x="41" y="30" width="1" height="16" fill="#5B6EE1" />
<rect x="48" y="30" width="2" height="1" fill="#EEC39A" />
<rect x="14" y="31" width="1" height="15" fill="#5B6EE1" />
<rect x="20" y="31" width="1" height="15" fill="#5B6EE1" />
<rect x="28" y="31" width="1" height="5" fill="#5B6EE1" />
<rect x="50" y="31" width="2" height="1" fill="#EEC39A" />
<rect x="25" y="32" width="1" height="1" fill="#FBF236" />
<rect x="34" y="32" width="1" height="1" fill="#FBF236" />
<rect x="52" y="32" width="2" height="1" fill="#EEC39A" />
<rect x="25" y="33" width="1" height="13" fill="#5B6EE1" />
<rect x="34" y="33" width="1" height="13" fill="#5B6EE1" />
<rect x="42" y="33" width="1" height="13" fill="#5B6EE1" />
<rect x="54" y="33" width="2" height="1" fill="#EEC39A" />
<rect x="13" y="34" width="1" height="12" fill="#5B6EE1" />
<rect x="19" y="34" width="1" height="1" fill="#FBF236" />
<rect x="19" y="35" width="1" height="11" fill="#5B6EE1" />
<rect x="29" y="35" width="3" height="11" fill="#5B6EE1" />
<rect x="32" y="35" width="1" height="1" fill="#FBF236" />
<rect x="33" y="35" width="1" height="11" fill="#5B6EE1" />
<rect x="43" y="35" width="1" height="11" fill="#5B6EE1" />
<rect x="12" y="36" width="1" height="10" fill="#5B6EE1" />
<rect x="28" y="36" width="1" height="1" fill="#000000" />
<rect x="32" y="36" width="1" height="8" fill="#5B6EE1" />
<rect x="38" y="36" width="1" height="1" fill="#FBF236" />
<rect x="28" y="37" width="1" height="4" fill="#5B6EE1" />
<rect x="38" y="37" width="1" height="3" fill="#5B6EE1" />
<rect x="44" y="37" width="1" height="9" fill="#5B6EE1" />
<rect x="11" y="38" width="1" height="8" fill="#5B6EE1" />
<rect x="22" y="38" width="1" height="1" fill="#FBF236" />
<rect x="22" y="39" width="1" height="7" fill="#5B6EE1" />
<rect x="10" y="40" width="1" height="6" fill="#5B6EE1" />
<rect x="15" y="40" width="1" height="1" fill="#FBF236" />
<rect x="38" y="40" width="1" height="1" fill="#FBF236" />
<rect x="45" y="40" width="1" height="6" fill="#5B6EE1" />
<rect x="15" y="41" width="1" height="5" fill="#5B6EE1" />
<rect x="23" y="41" width="1" height="5" fill="#5B6EE1" />
<rect x="24" y="41" width="1" height="1" fill="#FBF236" />
<rect x="28" y="41" width="1" height="1" fill="#000000" />
<rect x="38" y="41" width="1" height="5" fill="#5B6EE1" />
<rect x="9" y="42" width="1" height="4" fill="#5B6EE1" />
<rect x="24" y="42" width="1" height="4" fill="#5B6EE1" />
<rect x="28" y="42" width="1" height="4" fill="#5B6EE1" />
<rect x="46" y="42" width="1" height="4" fill="#5B6EE1" />
<rect x="8" y="44" width="1" height="2" fill="#5B6EE1" />
<rect x="32" y="44" width="1" height="1" fill="#FBF236" />
<rect x="40" y="44" width="1" height="1" fill="#FBF236" />
<rect x="47" y="44" width="1" height="2" fill="#5B6EE1" />
<rect x="32" y="45" width="1" height="1" fill="#5B6EE1" />
<rect x="40" y="45" width="1" height="1" fill="#5B6EE1" />
<rect x="22" y="46" width="4" height="13" fill="#EEC39A" />
<rect x="33" y="46" width="4" height="13" fill="#EEC39A" />
<rect x="12" y="59" width="15" height="2" fill="#5B6EE1" />
<rect x="32" y="59" width="14" height="2" fill="#5B6EE1" />
</svg>